<svg width="34" height="31" viewBox="0 0 34 31" fill="none" xmlns="http://www.w3.org/2000/svg">
<path d="M3.7447 1.07337L3.74475 1.07336C3.8908 1.03817 4.06528 1.02657 4.17385 1.02027C4.31142 1.01228 4.47616 1.0071 4.65358 1.00396C5.00988 0.997656 5.44623 0.999135 5.87768 1.00658C6.30911 1.01403 6.74454 1.0276 7.09897 1.04617C7.27541 1.05542 7.43914 1.06628 7.57551 1.07903C7.68058 1.08885 7.85804 1.10665 8.00581 1.14904L8.00596 1.14908C8.65498 1.33536 9.19668 1.66826 9.69733 2.1529L3.7447 1.07337ZM3.7447 1.07337C2.4083 1.39542 1.61401 2.85294 2.18596 4.15244L3.7447 1.07337ZM28.4692 21.7077L28.4691 21.7077C28.445 21.7197 28.4184 21.7334 28.3893 21.7484C28.236 21.8275 28.0157 21.9412 27.7471 22.0176C27.6137 22.0556 27.4713 22.0848 27.3129 22.1078C28.2979 22.7218 29.041 23.7618 29.2632 24.8923L29.2632 24.8924C29.3305 25.2352 29.3375 25.6329 29.3141 25.9871C29.2905 26.3437 29.2307 26.7368 29.1223 27.0718L28.1906 26.7702L29.1223 27.0718C28.5643 28.7955 26.8389 29.9949 25.0202 30H25.0202C23.8097 30.0033 22.7935 29.6123 21.9357 28.7813L21.9356 28.7812C21.3887 28.2513 21.0481 27.7303 20.8139 27.0275L20.8138 27.0274C20.2004 25.1867 20.9568 23.2687 22.4592 22.2175C21.9344 22.2177 21.3542 22.2176 20.7119 22.2175C20.354 22.2175 19.9768 22.2174 19.5793 22.2174C18.0995 22.2174 16.8604 22.2158 15.8428 22.2125C16.9135 22.9642 17.6031 24.1473 17.6905 25.466L17.6905 25.4661C17.8488 27.8599 15.8506 29.991 13.4522 29.9985C12.2604 30.0023 11.2492 29.5869 10.3953 28.7504L11.0319 28.1007L10.3953 28.7504C9.97336 28.337 9.63688 27.8933 9.41431 27.3674C9.19136 26.8405 9.10849 26.2922 9.10937 25.7052L9.10937 25.7051C9.10978 25.4536 9.11579 25.2282 9.14985 25.0033C9.1857 24.7666 9.24671 24.5677 9.32001 24.3606L9.32002 24.3606C9.69362 23.305 10.3903 22.4849 11.3224 21.9746C10.0011 21.5105 8.90775 20.4361 8.47142 19.1057C8.41976 18.9482 8.36959 18.6939 8.31789 18.4088C8.26082 18.094 8.18793 17.6578 8.09607 17.0819C7.91217 15.9289 7.64883 14.1943 7.27846 11.7058C6.86746 8.94446 6.61039 7.24437 6.44596 6.22398C6.40059 5.94247 6.36288 5.71654 6.33144 5.53666C6.14515 5.53508 5.89925 5.53459 5.57186 5.53451L28.4692 21.7077ZM28.4692 21.7077C29.5796 21.154 30.4687 20.0481 30.791 18.8433M28.4692 21.7077L30.791 18.8433M31.2681 5.61356L31.4785 5.71867L31.7605 5.85955C32.3819 6.17001 32.8776 6.82197 32.9851 7.5223L31.2681 5.61356ZM31.2681 5.61356L31.0329 5.61324M31.2681 5.61356L31.0329 5.61324M31.0329 5.61324L20.5943 5.59894L11.0196 5.58583L11.013 5.54045L11.013 5.54042M31.0329 5.61324L11.013 5.54042M11.013 5.54042C10.8819 4.63973 10.7689 3.98385 10.5832 3.47248M11.013 5.54042L10.5832 3.47248M4.00986 5.49785C3.93725 5.49311 3.76669 5.48198 3.62822 5.44441L4.00986 5.49785ZM4.00986 5.49785C4.01322 5.49807 4.01637 5.49828 4.01929 5.49847M4.00986 5.49785L4.01929 5.49847M4.01929 5.49847C4.13411 5.50608 4.27681 5.51246 4.43479 5.51764M4.01929 5.49847L4.43479 5.51764M4.43479 5.51764C4.75231 5.52806 5.15602 5.53443 5.57183 5.53451L4.43479 5.51764ZM30.791 18.8433C30.85 18.6228 31.3769 16.1013 31.9543 13.2915M30.791 18.8433L31.9543 13.2915M31.9543 13.2915C32.388 11.1814 32.6531 9.87102 32.8059 9.06152M31.9543 13.2915L32.8059 9.06152M32.8059 9.06152C32.8819 8.65855 32.9328 8.36534 32.9627 8.15391M32.8059 9.06152L32.9627 8.15391M32.9627 8.15391C32.9856 7.99199 33.0191 7.74437 32.9851 7.52245L32.9627 8.15391ZM10.5832 3.47248C10.3711 2.88843 10.0768 2.52023 9.69734 2.15291L10.5832 3.47248ZM6.82914 5.55258C6.8291 5.55259 6.82799 5.55245 6.8259 5.55212L6.82914 5.55258ZM12.3788 21.5572C12.2493 21.5912 12.1228 21.63 11.9994 21.6735L15.3684 21.9214C14.9234 21.6847 14.3965 21.5441 13.9018 21.483C13.4089 21.4221 12.8639 21.4297 12.3788 21.5572L12.3788 21.5572ZM2.186 4.15253C2.32282 4.46341 2.53278 4.73429 2.75824 4.94283C2.97794 5.14605 3.27627 5.34885 3.62799 5.44435L2.186 4.15253Z" stroke="black" stroke-width="2"/>
</svg>
