<svg width="29" height="27" viewBox="0 0 29 27" fill="none" xmlns="http://www.w3.org/2000/svg">
<path fill-rule="evenodd" clip-rule="evenodd" d="M0.978977 0.0455411C0.216314 0.229327 -0.206556 1.05038 0.101254 1.74966C0.247957 2.08303 0.587637 2.39723 0.890116 2.47931C1.00132 2.50952 1.7582 2.53435 2.57207 2.53451C3.97394 2.53485 4.05719 2.54061 4.15331 2.64442C4.23565 2.73332 4.44598 4.03872 5.26756 9.55854C6.00828 14.5353 6.31824 16.4789 6.42162 16.7941C6.80593 17.9659 7.87198 18.9043 9.10503 19.1561C9.31559 19.1991 11.553 19.2174 16.5793 19.2174C24.619 19.2174 24.1677 19.239 25.023 18.8127C25.8708 18.39 26.5749 17.5195 26.825 16.5848C26.8739 16.4019 27.3913 13.9293 27.9748 11.0902C28.8429 6.86622 29.0286 5.882 28.9967 5.67405C28.9405 5.30765 28.6567 4.92555 28.3135 4.75413L28.0315 4.61324L17.5929 4.59894L7.1544 4.58464L7.0234 3.68445C6.75659 1.8513 6.61704 1.46694 6.00181 0.871412C5.60378 0.486105 5.20223 0.245787 4.73008 0.110276C4.37611 0.00873964 1.34866 -0.043525 0.978977 0.0455411ZM9.63298 20.5244C8.48573 20.8259 7.65473 21.5866 7.26271 22.6942C7.13534 23.0541 7.11017 23.2204 7.10937 23.7068C7.1079 24.6861 7.38458 25.34 8.09512 26.0361C8.76348 26.6909 9.52308 27.0015 10.4491 26.9985C12.2731 26.9928 13.8127 25.3474 13.6926 23.5321C13.6166 22.3846 12.9426 21.3596 11.8988 20.8043C11.2767 20.4734 10.2905 20.3516 9.63298 20.5244ZM21.1385 20.5259C19.263 21.018 18.1722 22.9396 18.7625 24.7113C18.9418 25.2492 19.19 25.6353 19.6315 26.063C20.2926 26.7036 21.0542 27.0026 22.0175 27C23.4258 26.996 24.7529 26.0551 25.1709 24.7638C25.3211 24.3 25.3713 23.5401 25.2819 23.0851C25.0915 22.1159 24.3734 21.2065 23.4635 20.7823C23.1984 20.6587 22.8462 20.5304 22.681 20.4972C22.2659 20.4137 21.5125 20.4277 21.1385 20.5259Z" fill="black"/>
</svg>
