<svg width="34" height="33" viewBox="0 0 34 33" fill="none" xmlns="http://www.w3.org/2000/svg">
<path d="M32.9919 9.41463H31.9919V9.43914L31.9931 9.46362L32.9919 9.41463ZM17 31L16.4736 31.8503L17 32.1761L17.5263 31.8503L17 31ZM1.00807 9.41463L2.00687 9.46362L2.00807 9.43914V9.41463H1.00807ZM18 9.41463C18 4.26378 14.0198 0 9.00403 0V2C12.8203 2 16 5.27094 16 9.41463H18ZM24.996 0C19.9801 0 16 4.26378 16 9.41463H18C18 5.27094 21.1797 2 24.996 2V0ZM33.9919 9.41463C33.9919 4.26378 30.0118 0 24.996 0V2C28.8122 2 31.9919 5.27094 31.9919 9.41463H33.9919ZM17.5263 31.8503C30.9888 23.5165 34.1984 13.5998 33.9907 9.36565L31.9931 9.46362C32.1563 12.7904 29.4882 22.0932 16.4736 30.1497L17.5263 31.8503ZM0.00927486 9.36565C-0.198391 13.5998 3.01117 23.5165 16.4736 31.8503L17.5263 30.1497C4.51176 22.0932 1.84371 12.7904 2.00687 9.46362L0.00927486 9.36565ZM9.00403 0C3.98823 0 0.00807432 4.26378 0.00807432 9.41463H2.00807C2.00807 5.27094 5.18775 2 9.00403 2V0Z" fill="black"/>
</svg>
