<svg width="47" height="65" viewBox="0 0 47 65" fill="none" xmlns="http://www.w3.org/2000/svg">
<path fill-rule="evenodd" clip-rule="evenodd" d="M2.89207 52.2233C6.37163 55.1681 11.4596 56.7618 16.9264 56.1924C22.3932 55.623 27.0435 53.0151 29.8415 49.4165C26.3619 46.4716 21.274 44.878 15.8072 45.4474C10.3404 46.0168 5.69011 48.6246 2.89207 52.2233Z" fill="#ACF930"/>
<path fill-rule="evenodd" clip-rule="evenodd" d="M37.6955 34.7118C35.7998 38.3038 32.1248 41.3142 27.4168 42.6627C22.709 44.0112 17.9978 43.403 14.4879 41.3596C16.3836 37.7675 20.0586 34.7571 24.7666 33.4086C29.4744 32.0601 34.1856 32.6683 37.6955 34.7118Z" fill="#ACF930"/>
<path fill-rule="evenodd" clip-rule="evenodd" d="M37.5446 18.9987C37.2248 22.3849 35.3419 25.8893 32.1282 28.4373C28.915 30.9849 25.0741 32.0191 21.7046 31.5587C22.0243 28.1726 23.9073 24.6681 27.1209 22.1201C30.3341 19.5725 34.175 18.5383 37.5446 18.9987Z" fill="#ACF930"/>
<path fill-rule="evenodd" clip-rule="evenodd" d="M36.2239 7.12565C36.4692 10.1459 35.3614 13.5127 32.9378 16.247C30.5145 18.9808 27.3056 20.4846 24.2782 20.6039C24.0328 17.5836 25.1406 14.2169 27.5642 11.4826C29.9875 8.74873 33.1964 7.24499 36.2239 7.12565Z" fill="#ACF930"/>
</svg>
