<svg width="853" height="89" viewBox="0 0 853 89" fill="none" xmlns="http://www.w3.org/2000/svg">
<path d="M345.5 48H412M412 48L383 8M412 48L383 85.5" stroke="white" stroke-width="3" stroke-linecap="round"/>
<path d="M150.507 67.6398C136.65 90.033 112.153 82.292 103.324 70.9572C89.6651 51.052 104.151 27 125.674 27C147.196 27 160.771 51.0521 150.507 67.6398Z" stroke="white" stroke-width="10"/>
<path d="M199.503 77.9948C193.564 87.3592 183.066 84.1221 179.282 79.3821C173.428 71.0581 179.636 61 188.86 61C198.084 61 203.902 71.0581 199.503 77.9948Z" stroke="white" stroke-width="10"/>
<path d="M96 6C108.621 4.10455 141.417 5.37206 156 6" stroke="white" stroke-width="10" stroke-linecap="round"/>
<path d="M251 7C263.621 5.10455 296.417 6.37206 311 7" stroke="white" stroke-width="10" stroke-linecap="round"/>
<path d="M252 31.3289C271.306 30.3261 310.401 28.9221 312.332 31.3289C314.745 34.3375 313.711 92.252 254.069 81.7221" stroke="white" stroke-width="10" stroke-linecap="round"/>
<path d="M177 6.17739C194.005 5.21337 228.426 6.17707 224.724 63.1926M177 37.1636C192.908 33.5829 224.724 36.3373 224.724 76" stroke="white" stroke-width="10" stroke-linecap="round"/>
<path d="M5 53.5899C19.1157 68.529 39.9715 88.5852 62.9705 71.3743C82.294 56.9139 41.5913 8 14.4562 8" stroke="white" stroke-width="10" stroke-linecap="round"/>
<path d="M16 8C36.2931 5.73613 70.7092 2.56671 74 8" stroke="white" stroke-width="10" stroke-linecap="round"/>
<path d="M588.507 67.6398C574.65 90.033 550.153 82.292 541.324 70.9572C527.665 51.052 542.151 27 563.674 27C585.196 27 598.771 51.0521 588.507 67.6398Z" stroke="white" stroke-width="10"/>
<path d="M637.503 77.9948C631.564 87.3592 621.066 84.1221 617.282 79.3821C611.428 71.0581 617.636 61 626.86 61C636.084 61 641.902 71.0581 637.503 77.9948Z" stroke="white" stroke-width="10"/>
<path d="M534 6C546.621 4.10455 579.417 5.37206 594 6" stroke="white" stroke-width="10" stroke-linecap="round"/>
<path d="M689 7C701.621 5.10455 734.417 6.37206 749 7" stroke="white" stroke-width="10" stroke-linecap="round"/>
<path d="M690 31.3289C709.306 30.3261 748.401 28.9221 750.332 31.3289C752.745 34.3375 751.711 92.252 692.069 81.7221" stroke="white" stroke-width="10" stroke-linecap="round"/>
<path d="M615 6.17739C632.005 5.21337 666.426 6.17707 662.724 63.1926M615 37.1636C630.908 33.5829 662.724 36.3373 662.724 76" stroke="white" stroke-width="10" stroke-linecap="round"/>
<path d="M443 54V84" stroke="white" stroke-width="10" stroke-linecap="round"/>
<path d="M443 53.5899C457.116 68.529 477.972 88.5852 500.97 71.3743C520.294 56.9139 479.591 8 452.456 8" stroke="white" stroke-width="10" stroke-linecap="round"/>
<path d="M454 8C474.293 5.73613 508.709 2.56671 512 8" stroke="white" stroke-width="10" stroke-linecap="round"/>
<path d="M784 48H850.5M850.5 48L821.5 8M850.5 48L821.5 85.5" stroke="white" stroke-width="3" stroke-linecap="round"/>
</svg>
