<svg width="1058" height="94" viewBox="0 0 1058 94" fill="none" xmlns="http://www.w3.org/2000/svg">
<path fill-rule="evenodd" clip-rule="evenodd" d="M1010.01 2.33878C1012.98 3.56184 1014.26 7.35667 1013.02 10.292C1011.3 14.3847 1009.49 18.5632 1008 22.2219C1013.6 25.802 1018.82 31.2236 1024.07 39.1225C1031.29 49.9871 1030.26 64.1363 1023.07 74.9121C1015.73 85.8979 1002.09 94.4032 984.902 92.8069C976.756 92.7692 968.35 90.6565 960.799 85.8478C953.039 80.9061 946.926 73.5996 943.726 61.9881C940.466 50.1607 942.213 39.0142 945.735 30.1751C949.18 21.5264 954.765 13.6097 959.795 10.292C962.469 8.52809 966.046 9.63444 967.829 12.2803C969.612 14.9262 968.495 18.4696 965.821 20.2336C963.342 21.8686 958.646 26.9516 955.778 34.1517C952.985 41.1615 952.3 50.0313 954.773 59.0056C957.306 68.1957 961.752 73.67 966.825 76.9004C972.017 80.207 978.115 80.877 984.902 80.877H985.907C998.61 82.1339 1007.84 76.7074 1013.02 68.9471C1018.39 60.9148 1019.03 51.112 1015.03 45.0874C1011.06 39.1034 1007.31 35.7013 1003.98 33.1576C1001.33 39.8749 998.747 45.38 996.954 50.0582C996.825 50.3936 997.078 50.7276 996.954 51.0524C995.186 55.6629 993.998 59.5042 992.937 61.9881C992.418 63.2012 991.441 64.075 990.928 64.9705C990.689 65.3872 990.47 66.3556 989.924 66.9588C989.65 67.2608 988.629 67.5207 987.915 67.953C987.2 68.3859 986.614 69.1085 984.902 68.9471C979.787 68.4651 975.018 66.1596 971.846 62.9822C968.72 59.8498 967.437 56.0611 966.825 52.0465C965.625 44.18 967.975 35.8686 972.851 29.181C977.776 22.4252 985.94 16.2671 995.95 17.2511C996.473 17.3025 996.431 17.1652 996.954 17.2511C998.462 13.5525 1000.23 10.4536 1001.98 6.3154C1003.21 3.38005 1007.04 1.11572 1010.01 2.33878ZM992.937 29.181C988.972 29.4208 984.792 31.1646 981.889 35.1459C978.505 39.7877 977.195 45.6202 977.872 50.0582C978.198 52.1959 978.83 53.9766 979.881 55.029C980.354 55.5035 981.086 55.6458 981.889 56.0231C982.808 53.8034 984.324 51.2041 985.907 47.0757C986.032 46.7476 985.776 46.421 985.907 46.0816C987.692 41.4222 990.276 35.9082 992.937 29.181ZM980.885 59.0056C980.873 59.0234 980.885 59.0052 980.885 59.0056C980.873 59.0251 980.885 59.006 980.885 59.0056Z" fill="white"/>
<path fill-rule="evenodd" clip-rule="evenodd" d="M1010.01 2.33878C1012.98 3.56184 1014.26 7.35667 1013.02 10.292C1011.3 14.3847 1009.49 18.5632 1008 22.2219C1013.6 25.802 1018.82 31.2236 1024.07 39.1225C1031.29 49.9871 1030.26 64.1363 1023.07 74.9121C1015.73 85.8979 1002.09 94.4032 984.902 92.8069C976.756 92.7692 968.35 90.6565 960.799 85.8478C953.039 80.9061 946.926 73.5996 943.726 61.9881C940.466 50.1607 942.213 39.0142 945.735 30.1751C949.18 21.5264 954.765 13.6097 959.795 10.292C962.469 8.52809 966.046 9.63444 967.829 12.2803C969.612 14.9262 968.495 18.4696 965.821 20.2336C963.342 21.8686 958.646 26.9516 955.778 34.1517C952.985 41.1615 952.3 50.0313 954.773 59.0056C957.306 68.1957 961.752 73.67 966.825 76.9004C972.017 80.207 978.115 80.877 984.902 80.877H985.907C998.61 82.1339 1007.84 76.7074 1013.02 68.9471C1018.39 60.9148 1019.03 51.112 1015.03 45.0874C1011.06 39.1034 1007.31 35.7013 1003.98 33.1576C1001.33 39.8749 998.747 45.38 996.954 50.0582C996.825 50.3936 997.078 50.7276 996.954 51.0524C995.186 55.6629 993.998 59.5042 992.937 61.9881C992.418 63.2012 991.441 64.075 990.928 64.9705C990.689 65.3872 990.47 66.3556 989.924 66.9588C989.65 67.2608 988.629 67.5207 987.915 67.953C987.2 68.3859 986.614 69.1085 984.902 68.9471C979.787 68.4651 975.018 66.1596 971.846 62.9822C968.72 59.8498 967.437 56.0611 966.825 52.0465C965.625 44.18 967.975 35.8686 972.851 29.181C977.776 22.4252 985.94 16.2671 995.95 17.2511C996.473 17.3025 996.431 17.1652 996.954 17.2511C998.462 13.5525 1000.23 10.4536 1001.98 6.3154C1003.21 3.38005 1007.04 1.11572 1010.01 2.33878ZM992.937 29.181C988.972 29.4208 984.792 31.1646 981.889 35.1459C978.505 39.7877 977.195 45.6202 977.872 50.0582C978.198 52.1959 978.83 53.9766 979.881 55.029C980.354 55.5035 981.086 55.6458 981.889 56.0231C982.808 53.8034 984.324 51.2041 985.907 47.0757C986.032 46.7476 985.776 46.421 985.907 46.0816C987.692 41.4222 990.276 35.9082 992.937 29.181ZM980.885 59.0056C980.873 59.0234 980.885 59.0052 980.885 59.0056C980.873 59.0251 980.885 59.006 980.885 59.0056Z" stroke="black" stroke-linecap="round"/>
<path fill-rule="evenodd" clip-rule="evenodd" d="M724.832 5.73955C727.743 4.3704 730.495 4.82799 731.866 7.73745C733.792 11.8287 736.774 18.9232 738.9 26.7174C749.299 31.1376 757.347 38.8434 762.011 47.6953C769.027 61.0072 769.672 76.6981 765.026 87.6532C763.77 90.6138 760.955 92.9036 757.992 91.649C755.029 90.3943 752.717 86.618 753.973 83.6574C757.032 76.4443 757.634 63.452 751.963 52.6901C749.61 48.225 746.153 44.9119 741.914 41.7016C742.087 46.3879 741.288 50.8481 739.905 55.6869C739.02 58.7787 735.965 60.5661 732.87 59.6827C729.776 58.7993 727.967 55.7818 728.851 52.6901C730.415 47.2205 730.817 41.3945 729.856 35.708C726.823 34.967 723.436 34.709 719.807 34.709C718.47 34.709 717.065 34.5462 715.788 34.709C716.941 41.9015 716.718 49.591 712.773 56.6858C711.21 59.4967 707.547 61.2443 704.734 59.6827C701.921 58.1211 701.162 54.502 702.725 51.6911C704.692 48.1525 705.269 43.6059 704.734 38.7048C699.388 41.7836 694.945 46.1551 691.671 51.6911C685.588 61.9766 683.13 74.3563 686.647 83.6574C687.784 86.6654 686.642 90.5126 683.632 91.649C680.622 92.7853 677.735 90.6612 676.598 87.6532C671.594 74.4177 674.114 58.3936 681.622 45.6974C686.319 37.7555 693.04 30.8468 701.72 26.7174C700.058 21.9985 697.264 17.8747 695.691 14.7301C694.251 11.854 695.827 8.17652 698.705 6.7385C701.583 5.30048 705.305 6.8593 706.744 9.73534C708.403 13.0502 710.821 18.0888 712.773 23.7206C714.981 23.3623 717.444 22.7216 719.807 22.7216C722.081 22.7216 723.731 22.477 725.836 22.7216C724.364 18.7378 723.067 15.3863 721.817 12.7322C720.447 9.82272 721.92 7.10871 724.832 5.73955Z" fill="white"/>
<path fill-rule="evenodd" clip-rule="evenodd" d="M724.832 5.73955C727.743 4.3704 730.495 4.82799 731.866 7.73745C733.792 11.8287 736.774 18.9232 738.9 26.7174C749.299 31.1376 757.347 38.8434 762.011 47.6953C769.027 61.0072 769.672 76.6981 765.026 87.6532C763.77 90.6138 760.955 92.9036 757.992 91.649C755.029 90.3943 752.717 86.618 753.973 83.6574C757.032 76.4443 757.634 63.452 751.963 52.6901C749.61 48.225 746.153 44.9119 741.914 41.7016C742.087 46.3879 741.288 50.8481 739.905 55.6869C739.02 58.7787 735.965 60.5661 732.87 59.6827C729.776 58.7993 727.967 55.7818 728.851 52.6901C730.415 47.2205 730.817 41.3945 729.856 35.708C726.823 34.967 723.436 34.709 719.807 34.709C718.47 34.709 717.065 34.5462 715.788 34.709C716.941 41.9015 716.718 49.591 712.773 56.6858C711.21 59.4967 707.547 61.2443 704.734 59.6827C701.921 58.1211 701.162 54.502 702.725 51.6911C704.692 48.1525 705.269 43.6059 704.734 38.7048C699.388 41.7836 694.945 46.1551 691.671 51.6911C685.588 61.9766 683.13 74.3563 686.647 83.6574C687.784 86.6654 686.642 90.5126 683.632 91.649C680.622 92.7853 677.735 90.6612 676.598 87.6532C671.594 74.4177 674.114 58.3936 681.622 45.6974C686.319 37.7555 693.04 30.8468 701.72 26.7174C700.058 21.9985 697.264 17.8747 695.691 14.7301C694.251 11.854 695.827 8.17652 698.705 6.7385C701.583 5.30048 705.305 6.8593 706.744 9.73534C708.403 13.0502 710.821 18.0888 712.773 23.7206C714.981 23.3623 717.444 22.7216 719.807 22.7216C722.081 22.7216 723.731 22.477 725.836 22.7216C724.364 18.7378 723.067 15.3863 721.817 12.7322C720.447 9.82272 721.92 7.10871 724.832 5.73955Z" stroke="black" stroke-linecap="round"/>
<path d="M838.51 24.1617C824.575 1.85683 799.118 9.88335 790.239 21.1735C776.503 41.0002 791.725 65 813.369 65C835.013 65 848.833 40.684 838.51 24.1617Z" stroke="white" stroke-width="10"/>
<circle cx="814.5" cy="37.5" r="7.5" fill="white"/>
<circle cx="918" cy="8" r="8" fill="white"/>
<circle cx="872" cy="10" r="8" fill="white"/>
<path d="M872.62 32C869.482 52.1549 868.421 86 893.502 86C926.324 86 920.136 47.8451 918.362 32" stroke="white" stroke-width="10" stroke-linecap="round"/>
<path d="M1050 7C1053.32 30.1595 1050 78.3273 1050 88.773C1050 92.9334 1059.22 38.7265 1082 21.9585C1119.29 -5.50003 1142.77 82.5325 1086 88.773" stroke="white" stroke-width="10" stroke-linecap="round"/>
<path d="M784 86C796.621 87.8954 829.417 86.6279 844 86" stroke="white" stroke-width="10" stroke-linecap="round"/>
<path fill-rule="evenodd" clip-rule="evenodd" d="M434.01 2.33878C436.976 3.56184 438.259 7.35667 437.023 10.292C435.299 14.3847 433.493 18.5632 432.001 22.2219C437.597 25.802 442.824 31.2236 448.07 39.1225C455.286 49.9871 454.265 64.1363 447.066 74.9121C439.726 85.8979 426.092 94.4032 408.902 92.8069C400.756 92.7692 392.35 90.6565 384.799 85.8478C377.039 80.9061 370.926 73.5996 367.726 61.9881C364.466 50.1607 366.213 39.0142 369.735 30.1751C373.18 21.5264 378.765 13.6097 383.795 10.292C386.469 8.52809 390.046 9.63444 391.829 12.2803C393.612 14.9262 392.495 18.4696 389.821 20.2336C387.342 21.8686 382.646 26.9516 379.778 34.1517C376.985 41.1615 376.3 50.0313 378.773 59.0056C381.306 68.1957 385.752 73.67 390.825 76.9004C396.017 80.207 402.115 80.877 408.902 80.877H409.907C422.61 82.1339 431.838 76.7074 437.023 68.9471C442.389 60.9148 443.033 51.112 439.031 45.0874C435.057 39.1034 431.309 35.7013 427.984 33.1576C425.326 39.8749 422.747 45.38 420.954 50.0582C420.825 50.3936 421.078 50.7276 420.954 51.0524C419.186 55.6629 417.998 59.5042 416.937 61.9881C416.418 63.2012 415.441 64.075 414.928 64.9705C414.689 65.3872 414.47 66.3556 413.924 66.9588C413.65 67.2608 412.629 67.5207 411.915 67.953C411.2 68.3859 410.614 69.1085 408.902 68.9471C403.787 68.4651 399.018 66.1596 395.846 62.9822C392.72 59.8498 391.437 56.0611 390.825 52.0465C389.625 44.18 391.975 35.8686 396.851 29.181C401.776 22.4252 409.94 16.2671 419.95 17.2511C420.473 17.3025 420.431 17.1652 420.954 17.2511C422.462 13.5525 424.233 10.4536 425.975 6.3154C427.211 3.38005 431.043 1.11572 434.01 2.33878ZM416.937 29.181C412.972 29.4208 408.792 31.1646 405.889 35.1459C402.505 39.7877 401.195 45.6202 401.872 50.0582C402.198 52.1959 402.83 53.9766 403.881 55.029C404.354 55.5035 405.086 55.6458 405.889 56.0231C406.808 53.8034 408.324 51.2041 409.907 47.0757C410.032 46.7476 409.776 46.421 409.907 46.0816C411.692 41.4222 414.276 35.9082 416.937 29.181ZM404.885 59.0056C404.873 59.0234 404.885 59.0052 404.885 59.0056C404.873 59.0251 404.885 59.006 404.885 59.0056Z" fill="white"/>
<path fill-rule="evenodd" clip-rule="evenodd" d="M434.01 2.33878C436.976 3.56184 438.259 7.35667 437.023 10.292C435.299 14.3847 433.493 18.5632 432.001 22.2219C437.597 25.802 442.824 31.2236 448.07 39.1225C455.286 49.9871 454.265 64.1363 447.066 74.9121C439.726 85.8979 426.092 94.4032 408.902 92.8069C400.756 92.7692 392.35 90.6565 384.799 85.8478C377.039 80.9061 370.926 73.5996 367.726 61.9881C364.466 50.1607 366.213 39.0142 369.735 30.1751C373.18 21.5264 378.765 13.6097 383.795 10.292C386.469 8.52809 390.046 9.63444 391.829 12.2803C393.612 14.9262 392.495 18.4696 389.821 20.2336C387.342 21.8686 382.646 26.9516 379.778 34.1517C376.985 41.1615 376.3 50.0313 378.773 59.0056C381.306 68.1957 385.752 73.67 390.825 76.9004C396.017 80.207 402.115 80.877 408.902 80.877H409.907C422.61 82.1339 431.838 76.7074 437.023 68.9471C442.389 60.9148 443.033 51.112 439.031 45.0874C435.057 39.1034 431.309 35.7013 427.984 33.1576C425.326 39.8749 422.747 45.38 420.954 50.0582C420.825 50.3936 421.078 50.7276 420.954 51.0524C419.186 55.6629 417.998 59.5042 416.937 61.9881C416.418 63.2012 415.441 64.075 414.928 64.9705C414.689 65.3872 414.47 66.3556 413.924 66.9588C413.65 67.2608 412.629 67.5207 411.915 67.953C411.2 68.3859 410.614 69.1085 408.902 68.9471C403.787 68.4651 399.018 66.1596 395.846 62.9822C392.72 59.8498 391.437 56.0611 390.825 52.0465C389.625 44.18 391.975 35.8686 396.851 29.181C401.776 22.4252 409.94 16.2671 419.95 17.2511C420.473 17.3025 420.431 17.1652 420.954 17.2511C422.462 13.5525 424.233 10.4536 425.975 6.3154C427.211 3.38005 431.043 1.11572 434.01 2.33878ZM416.937 29.181C412.972 29.4208 408.792 31.1646 405.889 35.1459C402.505 39.7877 401.195 45.6202 401.872 50.0582C402.198 52.1959 402.83 53.9766 403.881 55.029C404.354 55.5035 405.086 55.6458 405.889 56.0231C406.808 53.8034 408.324 51.2041 409.907 47.0757C410.032 46.7476 409.776 46.421 409.907 46.0816C411.692 41.4222 414.276 35.9082 416.937 29.181ZM404.885 59.0056C404.873 59.0234 404.885 59.0052 404.885 59.0056C404.873 59.0251 404.885 59.006 404.885 59.0056Z" stroke="black" stroke-linecap="round"/>
<path fill-rule="evenodd" clip-rule="evenodd" d="M148.832 5.73955C151.743 4.3704 154.495 4.82799 155.866 7.73745C157.792 11.8287 160.774 18.9232 162.9 26.7174C173.299 31.1376 181.347 38.8434 186.011 47.6953C193.027 61.0072 193.672 76.6981 189.026 87.6532C187.77 90.6138 184.955 92.9036 181.992 91.649C179.029 90.3943 176.717 86.618 177.973 83.6574C181.032 76.4443 181.634 63.452 175.963 52.6901C173.61 48.225 170.153 44.9119 165.914 41.7016C166.087 46.3879 165.288 50.8481 163.905 55.6869C163.02 58.7787 159.965 60.5661 156.87 59.6827C153.776 58.7993 151.967 55.7818 152.851 52.6901C154.415 47.2205 154.817 41.3945 153.856 35.708C150.823 34.967 147.436 34.709 143.807 34.709C142.47 34.709 141.065 34.5462 139.788 34.709C140.941 41.9015 140.718 49.591 136.773 56.6858C135.21 59.4967 131.547 61.2443 128.734 59.6827C125.921 58.1211 125.162 54.502 126.725 51.6911C128.692 48.1525 129.269 43.6059 128.734 38.7048C123.388 41.7836 118.945 46.1551 115.671 51.6911C109.588 61.9766 107.13 74.3563 110.647 83.6574C111.784 86.6654 110.642 90.5126 107.632 91.649C104.622 92.7853 101.735 90.6612 100.598 87.6532C95.5942 74.4177 98.1139 58.3936 105.622 45.6974C110.319 37.7555 117.04 30.8468 125.72 26.7174C124.058 21.9985 121.264 17.8747 119.691 14.7301C118.251 11.854 119.827 8.17652 122.705 6.7385C125.583 5.30048 129.305 6.8593 130.744 9.73534C132.403 13.0502 134.821 18.0888 136.773 23.7206C138.981 23.3623 141.444 22.7216 143.807 22.7216C146.081 22.7216 147.731 22.477 149.836 22.7216C148.364 18.7378 147.067 15.3863 145.817 12.7322C144.447 9.82272 145.92 7.10871 148.832 5.73955Z" fill="white"/>
<path d="M162.417 26.849L162.481 27.0828L162.704 27.1776C172.997 31.5526 180.958 39.1782 185.569 47.9284C192.523 61.1233 193.146 76.6569 188.566 87.458C187.969 88.8651 187.01 90.0895 185.88 90.8103C184.764 91.5227 183.492 91.7414 182.187 91.1886C180.82 90.6098 179.583 89.4365 178.841 88.056C178.098 86.6751 177.881 85.1534 178.433 83.8526C181.548 76.5081 182.15 63.3581 176.405 52.4569C174.003 47.8989 170.481 44.5331 166.216 41.3031L165.376 40.6666L165.415 41.72C165.584 46.3352 164.799 50.7398 163.424 55.5494C162.612 58.388 159.824 60.006 157.008 59.2019C154.161 58.3891 152.529 55.6356 153.332 52.8275C154.915 47.2903 155.323 41.3888 154.349 35.6246L154.294 35.3003L153.975 35.2222C150.887 34.468 147.456 34.209 143.807 34.209C143.371 34.209 142.936 34.1916 142.489 34.1738C142.26 34.1646 142.027 34.1553 141.79 34.1482C141.106 34.1276 140.403 34.1265 139.725 34.213L139.212 34.2783L139.294 34.7882C140.438 41.9199 140.206 49.4825 136.336 56.4429C135.611 57.7472 134.393 58.8098 133.035 59.3606C131.68 59.91 130.223 59.9375 128.977 59.2455C126.441 57.8378 125.712 54.5407 127.162 51.9341C129.196 48.2754 129.773 43.6147 129.231 38.6505L129.148 37.8895L128.485 38.2715C123.063 41.3938 118.558 45.8273 115.241 51.4366C109.114 61.797 106.59 74.3399 110.179 83.8342C111.249 86.6634 110.134 90.1699 107.456 91.1812C104.809 92.1801 102.151 90.3465 101.066 87.4764C96.1263 74.4113 98.6046 58.5461 106.053 45.9519C110.709 38.0785 117.361 31.2477 125.934 27.1689L126.341 26.9757L126.191 26.5514C125.347 24.1543 124.218 21.9161 123.111 19.8932C122.687 19.1192 122.269 18.3827 121.872 17.6813C121.221 16.5322 120.624 15.4774 120.138 14.5063C118.844 11.9209 120.252 8.52326 122.929 7.18578C125.521 5.89078 128.961 7.28863 130.297 9.95908C131.952 13.2676 134.359 18.2834 136.301 23.8844L136.438 24.2815L136.853 24.2141C137.487 24.1114 138.127 23.9889 138.772 23.8656C140.443 23.5462 142.14 23.2216 143.807 23.2216C144.608 23.2216 145.339 23.1914 146.028 23.163C146.326 23.1507 146.617 23.1387 146.901 23.1297C147.85 23.0994 148.761 23.1001 149.779 23.2183L150.588 23.3123L150.305 22.5483C148.833 18.5645 147.529 15.1948 146.269 12.5191C145.644 11.1917 145.676 9.94075 146.172 8.86808C146.674 7.78368 147.67 6.83809 149.044 6.19202C150.432 5.53931 151.727 5.34861 152.805 5.61899C153.864 5.8848 154.783 6.61317 155.413 7.95048C157.332 12.0243 160.301 19.0908 162.417 26.849Z" stroke="black" stroke-linecap="round"/>
<path d="M262.51 24.1617C248.575 1.85683 223.118 9.88335 214.239 21.1735C200.503 41.0002 215.725 65 237.369 65C259.013 65 272.833 40.684 262.51 24.1617Z" stroke="white" stroke-width="10"/>
<circle cx="238.5" cy="37.5" r="7.5" fill="white"/>
<circle cx="342" cy="8" r="8" fill="white"/>
<circle cx="296" cy="10" r="8" fill="white"/>
<path d="M296.62 32C293.482 52.1549 292.421 86 317.502 86C350.324 86 344.136 47.8451 342.362 32" stroke="white" stroke-width="10" stroke-linecap="round"/>
<path d="M474 7C477.315 30.1595 474 78.3273 474 88.773C474 92.9334 483.224 38.7265 505.998 21.9585C543.292 -5.50003 566.767 82.5325 509.998 88.773" stroke="white" stroke-width="10" stroke-linecap="round"/>
<path d="M208 86C220.621 87.8954 253.417 86.6279 268 86" stroke="white" stroke-width="10" stroke-linecap="round"/>
<path d="M642.5 48H576M576 48L605 8M576 48L605 85.5" stroke="white" stroke-width="3" stroke-linecap="round"/>
<path d="M68.5 48H2M2 48L31 8M2 48L31 85.5" stroke="white" stroke-width="3" stroke-linecap="round"/>
</svg>
