<svg width="29" height="29" viewBox="0 0 29 29" fill="none" xmlns="http://www.w3.org/2000/svg">
<path fill-rule="evenodd" clip-rule="evenodd" d="M23.0097 0.0468931C22.3328 0.200912 22.1303 0.353866 20.6421 1.83513L19.2478 3.22293L22.1617 6.15367L25.0757 9.08441L26.3365 7.82315C28.0388 6.12031 28.283 5.83072 28.4315 5.33945C28.5226 5.03769 28.5414 4.86926 28.5152 4.58735C28.4507 3.89334 28.3452 3.74689 26.733 2.11351C25.2373 0.598211 24.8355 0.263877 24.3284 0.112493C23.9269 -0.00732485 23.3699 -0.0350786 23.0097 0.0468931ZM10.3519 12.1687L3.0178 19.5417L5.91803 22.4572L8.81826 25.3728L16.1801 17.9718L23.542 10.5709L20.67 7.68332C19.0905 6.09513 17.7728 4.79575 17.742 4.79575C17.7111 4.79575 14.3856 8.11359 10.3519 12.1687ZM0.710947 24.5102C0.193814 26.8367 -0.0218066 27.9076 0.00172988 28.0335C0.0402694 28.2402 0.209375 28.4204 0.451321 28.5125C0.597169 28.5681 1.02836 28.4765 3.90929 27.7784C5.71953 27.3398 7.21209 26.9713 7.22614 26.9595C7.25314 26.9369 1.53255 21.1677 1.48302 21.1677C1.46701 21.1677 1.1196 22.6718 0.710947 24.5102Z" fill="#2B27FF"/>
</svg>
