<svg width="49" height="25" viewBox="0 0 49 25" fill="none" xmlns="http://www.w3.org/2000/svg">
<path d="M2.57431 22.5511C0.380854 16.7449 4.65136 7.80623 12.2995 7.80623C22.0248 7.80623 24.6861 17.8703 22.7025 22.5511M7.65454 3.54834C8.81578 5.87082 11.1383 10.9029 9.20286 14.3866M14.2349 3.16125C15.2671 5.35471 17.409 10.0513 16.1703 14.3866" stroke="black" stroke-width="3" stroke-linecap="round"/>
<path d="M31.2727 3.9354C29.3373 5.22567 26.311 10.1287 27.789 15.5478C29.2669 20.967 33.2081 22.5153 37.0789 22.5153C44.8205 23.2895 48.8731 15.3027 45.9818 10.9029C37.0789 -2.64497 28.9502 15.5478 37.0789 16.322C37.4652 16.3588 39.0143 11.2899 42.8851 2" stroke="black" stroke-width="3" stroke-linecap="round"/>
</svg>
