<svg width="144" height="57" viewBox="0 0 144 57" fill="none" xmlns="http://www.w3.org/2000/svg">
<path fill-rule="evenodd" clip-rule="evenodd" d="M16.8903 0.0637384C15.7216 0.223429 14.8152 0.653354 14.1281 1.37397C13.3708 2.16805 12.9689 3.21669 12.8476 4.71477C12.7893 5.43502 12.818 7.30898 12.8982 8.01578C13.0635 9.47318 13.4881 10.7169 14.2381 11.9406C14.6064 12.5416 14.8766 12.9051 16.5175 15.007C18.1686 17.1218 18.3393 17.3475 18.6455 17.8202C19.3379 18.8889 19.5073 19.509 19.5519 21.1377C19.6073 23.1605 19.4147 23.9544 18.7903 24.2764C18.6046 24.3722 18.5097 24.3902 18.1903 24.3902C17.3114 24.3904 16.9108 23.9274 16.8108 22.7959C16.7865 22.521 16.7665 21.2385 16.7663 19.9458L16.7659 17.5954H14.6727H12.5795L12.5983 20.8815C12.6185 24.3985 12.621 24.4411 12.8572 25.2369C13.3719 26.9718 14.574 28.0176 16.447 28.3603C16.9816 28.4581 18.6409 28.495 19.3258 28.4243C20.6709 28.2854 21.5942 27.8722 22.4138 27.0424C23.2449 26.2011 23.7355 25.0783 23.9582 23.5078C24.0554 22.8222 24.0686 20.0863 23.9784 19.3108C23.7644 17.4721 23.2228 16.2194 21.8443 14.3755C21.6019 14.0512 20.7589 12.9538 19.9711 11.9367C18.3746 9.8757 17.9181 9.22624 17.6065 8.57273C17.2146 7.75093 17.0972 7.03349 17.133 5.68008C17.1519 4.96477 17.1712 4.78071 17.2547 4.51907C17.3839 4.11401 17.5813 3.90905 17.9438 3.80345C18.4398 3.65896 18.9568 3.78202 19.2475 4.11383C19.5338 4.44057 19.5391 4.49132 19.5571 7.06895L19.5733 9.39703H21.6162H23.659L23.6584 7.11351C23.6575 3.95615 23.5871 3.1335 23.2476 2.31366C22.6856 0.956205 21.7189 0.290665 19.9767 0.0616889C19.3439 -0.0214981 17.5053 -0.0202952 16.8903 0.0637384ZM0 14.2091V28.1553H2.11242H4.22483V22.0288V15.9023H5.67017H7.1155V22.0288V28.1553H9.22792H11.3403V14.2091V0.26295H9.22792H7.1155V5.85541V11.4479L5.68128 11.4361L4.24707 11.4243L4.23577 5.84365L4.22447 0.26295H2.11224H0V14.2091ZM25.26 14.2091V28.1553H30.1742H35.0883V26.0389V23.9224H32.2866H29.4849V19.8901V15.8577H31.5973H33.7097V13.7413V11.6249H31.5973H29.4849V7.97122V4.31759H32.1754H34.866V2.29027V0.26295H30.063H25.26V14.2091ZM42.4951 0.363203C42.4831 0.418319 41.7218 6.63898 40.8032 14.1869C39.8846 21.7347 39.1219 27.9654 39.1084 28.0328L39.0837 28.1553H40.9765H42.8692L42.8909 28.0551C42.9028 27.9999 43.0238 26.8921 43.1596 25.5933C43.2954 24.2945 43.4179 23.1567 43.4317 23.0647L43.4569 22.8976H44.9624C45.8801 22.8976 46.4782 22.9144 46.4943 22.9406C46.5089 22.9642 46.6449 24.1471 46.7965 25.5694L47.0721 28.1553H49.1074C50.7949 28.1553 51.1427 28.1449 51.1427 28.0946C51.1427 28.0613 50.3322 21.8061 49.3416 14.1942C48.351 6.58244 47.5405 0.333929 47.5405 0.308754C47.5405 0.277921 46.7192 0.26295 45.0286 0.26295H42.5168L42.4951 0.363203ZM51.8098 14.2091V28.1553H53.9444H56.0791V21.9363V15.7172L56.9351 15.7355C57.4447 15.7463 57.8606 15.7761 57.9627 15.8091C58.2037 15.887 58.5026 16.1782 58.5985 16.4284C58.6732 16.6237 58.6803 16.974 58.7062 21.7615C58.7299 26.1527 58.7438 26.9346 58.8034 27.2291C58.8865 27.6405 58.9567 27.8678 59.0518 28.0328L59.1223 28.1553H61.2252C63.6213 28.1553 63.4132 28.197 63.238 27.7517C63.1886 27.626 63.1042 27.3796 63.0505 27.2043L62.9529 26.8854L62.9257 21.1599C62.8953 14.7549 62.9162 15.1508 62.571 14.4457C62.2992 13.8904 61.9245 13.5144 61.3375 13.2076L61.1036 13.0855L61.3535 12.9346C61.8608 12.6286 62.1735 12.2785 62.4636 11.6917C62.9036 10.8015 62.9399 10.3957 62.9163 6.629C62.9007 4.13936 62.8871 3.65512 62.8226 3.29653C62.5039 1.5255 61.5541 0.592891 59.8038 0.332503C59.4087 0.273733 58.754 0.26295 55.5731 0.26295H51.8098V14.2091ZM63.6838 2.29027V4.31759H65.4626H67.2415V16.2365V28.1553H69.3539H71.4663V16.2365V4.31759H73.2452H75.0241V2.29027V0.26295H69.3539H63.6838V2.29027ZM82.362 0.321186C82.362 0.353578 81.6015 6.6082 80.672 14.2203C79.7426 21.8323 78.9821 28.0818 78.9821 28.1079C78.9821 28.1407 79.5652 28.1553 80.8721 28.1553C82.6415 28.1553 82.7624 28.1503 82.765 28.0773C82.7666 28.0345 82.8917 26.8565 83.043 25.4596L83.3181 22.9199H84.8516H86.3852L86.6612 25.4819C86.813 26.891 86.9384 28.069 86.9399 28.0996C86.942 28.1433 87.3828 28.1553 88.9883 28.1553C90.1134 28.1553 91.0333 28.1503 91.0324 28.1442C91.0315 28.138 90.2148 21.8673 89.2174 14.2091L87.404 0.285229L84.883 0.273733C82.8156 0.264287 82.362 0.272842 82.362 0.321186ZM91.701 14.2091V28.1553H93.6132H95.5254L95.5366 20.1951L95.5479 12.2348L97.5499 20.1839L99.5518 28.133L101.274 28.1447L102.997 28.1563V14.2097V0.26295H101.085H99.1723L99.1693 7.69274C99.1675 12.1593 99.1503 15.087 99.1261 15.0334C99.104 14.9844 98.304 11.7162 97.3484 7.77072C96.3928 3.82524 95.591 0.521957 95.5666 0.430037L95.5222 0.26295H93.6116H91.701V14.2091ZM104.598 14.209V28.1591L108.322 28.1437C111.9 28.1289 112.063 28.1247 112.448 28.036C113.748 27.7368 114.64 27.0567 115.202 25.9355C115.375 25.5897 115.574 24.9505 115.683 24.3903C115.778 23.9004 115.778 23.8948 115.794 14.4765C115.806 7.89695 115.796 4.89072 115.762 4.51591C115.622 2.97555 115.117 1.82902 114.291 1.17832C113.8 0.792014 113.291 0.561612 112.536 0.384411C112.149 0.293427 112.015 0.289907 108.367 0.27458L104.598 0.258762V14.209ZM56.0791 7.87792V11.714H56.8048C57.7264 11.714 57.9119 11.6658 58.2349 11.3421C58.4027 11.174 58.4942 11.0327 58.5718 10.8223L58.6782 10.5332L58.6934 7.94894C58.7091 5.26696 58.6957 5.00737 58.5247 4.67516C58.4098 4.45188 58.1792 4.24474 57.9467 4.15576C57.7917 4.09641 57.5593 4.07503 56.9129 4.06054L56.0791 4.04192V7.87792ZM108.823 14.0755V24.1007H109.507C110.063 24.1007 110.245 24.0842 110.475 24.0129C110.975 23.8573 111.236 23.5421 111.392 22.9035C111.457 22.6376 111.466 21.7979 111.48 14.521C111.489 9.39877 111.479 6.21191 111.45 5.82819C111.393 5.04163 111.282 4.68897 111.003 4.40096C110.713 4.10073 110.507 4.05025 109.571 4.05025H108.823V14.0755ZM44.9218 8.63061C44.8854 9.03817 43.8874 18.5038 43.8697 18.6091L43.8452 18.7539H44.9342C45.5331 18.7539 46.0314 18.7389 46.0414 18.7205C46.0606 18.6854 44.9896 8.81615 44.9499 8.66185C44.9373 8.61283 44.9246 8.59876 44.9218 8.63061ZM84.7945 8.72868C84.7658 8.87273 83.7403 18.5733 83.7405 18.6982C83.7406 18.7412 83.9882 18.7539 84.8301 18.7539C85.8083 18.7539 85.9197 18.7465 85.9197 18.6811C85.9197 18.6231 84.9016 9.20325 84.8417 8.7064L84.8255 8.57273L84.7945 8.72868ZM27.6615 28.532C25.7052 28.8115 24.4748 29.7838 23.9095 31.497C23.6234 32.3639 23.5928 32.6548 23.5926 34.5046C23.5924 35.5863 23.6118 36.2987 23.6488 36.5765C23.8417 38.0223 24.2108 39.1121 24.9011 40.2747C25.303 40.9514 25.6035 41.3581 27.3698 43.6164C29.0775 45.7999 29.5142 46.4136 29.8178 47.0572C30.2274 47.9254 30.3012 48.4433 30.2735 50.2555C30.2572 51.3244 30.2391 51.6193 30.1767 51.8352C30.0741 52.1898 29.9676 52.3879 29.789 52.5561C29.5703 52.7621 29.3805 52.8424 29.0456 52.8705C28.2198 52.9399 27.7113 52.4703 27.5728 51.5106C27.5492 51.347 27.5295 50.0554 27.529 48.6402L27.5281 46.067H25.4379H23.3477V49.1614C23.3477 52.514 23.367 52.8696 23.5923 53.6699C23.7497 54.2293 24.1343 54.9769 24.4702 55.3762C25.1122 56.1396 25.992 56.6073 27.2168 56.8362C27.8235 56.9496 29.9867 56.9498 30.5824 56.8365C32.1957 56.5298 33.3253 55.7006 34.0183 54.3145C34.4018 53.5476 34.6223 52.7287 34.7345 51.6554C34.8122 50.9121 34.7672 47.9699 34.6689 47.3592C34.5046 46.3394 34.2608 45.5888 33.8197 44.7453C33.3485 43.8441 33.0178 43.3829 30.6458 40.3192C29.8584 39.3022 29.0732 38.2596 28.9008 38.0023C28.4875 37.3852 28.1782 36.7434 28.0309 36.1967C27.9146 35.7652 27.911 35.7156 27.9086 34.5046C27.9062 33.319 27.9111 33.2425 28.0072 32.964C28.1673 32.5 28.4633 32.2718 28.9661 32.2248C29.5394 32.1711 29.9736 32.4056 30.1609 32.8698C30.2625 33.1218 30.2632 33.1383 30.2761 35.496L30.289 37.8686H32.3358H34.3826L34.3644 34.9836C34.3473 32.2723 34.3407 32.0731 34.2543 31.6753C33.8533 29.8289 32.9255 28.9335 31.0396 28.5726C30.5198 28.4731 28.2635 28.4459 27.6615 28.532ZM45.9839 28.5157C44.8691 28.6591 43.9976 29.0451 43.3158 29.6978C42.4459 30.5304 41.9653 31.6105 41.7518 33.2125C41.7038 33.5723 41.6924 35.4849 41.6924 43.1486C41.6924 52.1335 41.6967 52.664 41.7735 53.1069C42.1265 55.1427 43.285 56.5586 44.8944 56.9211C45.3132 57.0154 46.3233 57.0281 46.6713 56.9434C47.373 56.7726 47.9532 56.4302 48.5664 55.8249C49.0729 55.325 49.3969 54.8809 49.6738 54.3072C49.7685 54.1111 49.8549 53.9663 49.8657 53.9855C49.8766 54.0047 50.0295 54.5818 50.2055 55.2679C50.3815 55.9541 50.5337 56.5406 50.5436 56.5712C50.5575 56.6139 50.8415 56.6269 51.7639 56.6269H52.966V48.1612V39.6954H50.0086H47.0513V41.8341V43.9729H48.0074H48.9636L48.9632 47.504C48.963 49.6901 48.9456 51.1417 48.9175 51.3152C48.7677 52.2404 48.2601 52.7105 47.4018 52.7189C46.8298 52.7245 46.4404 52.4667 46.2006 51.9237C45.9832 51.4313 45.9871 51.6004 45.9864 42.6139C45.9859 37.3324 46.002 34.0764 46.0294 33.8808C46.1563 32.9763 46.5875 32.5218 47.3189 32.5218C47.8393 32.5218 48.1902 32.7086 48.4018 33.0982C48.6185 33.4971 48.649 33.829 48.6507 35.8079L48.6523 37.6013H50.7202H52.7881L52.787 36.1866C52.7843 32.9456 52.6433 31.7862 52.1214 30.7112C51.4868 29.4044 50.3936 28.7061 48.6833 28.515C48.1917 28.4601 46.4128 28.4605 45.9839 28.5157ZM75.3576 28.4958C72.8825 28.7567 71.4597 30.1209 71.089 32.5887C71.0084 33.1261 70.9951 35.6195 71.0689 36.3794C71.1834 37.559 71.4695 38.5695 71.9819 39.6054C72.4364 40.5242 72.8441 41.1092 74.565 43.3112C76.6569 45.9878 76.8571 46.2643 77.2041 46.9554C77.6139 47.7713 77.6926 48.1985 77.7219 49.7652C77.7549 51.5345 77.6316 52.2015 77.1987 52.5933C76.7112 53.0346 75.7175 52.9451 75.3361 52.4255C75.2606 52.3227 75.1546 52.1081 75.1006 51.9487C75.004 51.6637 75.0022 51.6124 74.9894 48.8629L74.9765 46.067H72.8618H70.7472L70.7664 49.2639C70.7866 52.6267 70.7998 52.8635 71.0074 53.6175C71.3961 55.0287 72.2848 56.0426 73.5684 56.5395C74.3979 56.8605 75.2426 56.9637 76.7292 56.9256C78.115 56.8901 78.8496 56.7174 79.718 56.2232C80.1219 55.9934 80.7652 55.4028 81.055 54.996C81.6747 54.1259 82.0576 52.9304 82.1872 51.4612C82.2687 50.5368 82.2178 48.1283 82.1005 47.3665C81.9104 46.1305 81.5841 45.2453 80.9095 44.1356C80.5323 43.5151 80.1603 43.009 78.5775 40.9626C76.2178 37.9119 75.9934 37.5897 75.6637 36.7795C75.3847 36.0939 75.3211 35.6766 75.3171 34.5046C75.3133 33.4003 75.3495 33.1141 75.5413 32.7337C75.7412 32.3373 76.2508 32.1411 76.8096 32.2451C77.3161 32.3396 77.5951 32.6597 77.693 33.2593C77.7169 33.4054 77.7365 34.4994 77.7366 35.6965L77.7369 37.8686H79.7858H81.8348L81.816 35.095C81.7967 32.2541 81.7847 32.0414 81.605 31.3372C81.3067 30.1688 80.6886 29.3987 79.6768 28.9347C78.9179 28.5867 78.4113 28.5078 76.8252 28.4909C76.1159 28.4833 75.4555 28.4855 75.3576 28.4958ZM87.4588 28.5154C85.8679 28.733 84.7165 29.501 84.0231 30.8069C83.6262 31.5544 83.4106 32.4021 83.3401 33.4925C83.2847 34.3486 83.2845 50.8123 83.3398 51.7129C83.3627 52.0856 83.4128 52.5715 83.4511 52.7927C83.8571 55.1368 85.1198 56.4841 87.2761 56.8738C87.8241 56.9729 89.3549 57.0104 90.0766 56.9424C92.3179 56.7313 93.6744 55.5739 94.2365 53.3934C94.4842 52.4325 94.5026 52.0649 94.5027 48.0832L94.5028 44.463H92.4348H90.3669L90.366 47.8159C90.3655 49.73 90.3467 51.2963 90.3222 51.466C90.1845 52.4201 89.6814 52.8887 88.8582 52.8294C88.1595 52.7792 87.7741 52.3238 87.6545 51.4069C87.6205 51.1462 87.61 48.4392 87.6194 42.3465C87.6319 34.1974 87.6376 33.6415 87.7113 33.3907C87.8189 33.024 87.9887 32.7946 88.2537 32.658C88.4472 32.5582 88.5294 32.5441 88.9204 32.5441C89.3269 32.5441 89.3898 32.5559 89.6331 32.6778C89.8319 32.7773 89.9367 32.8665 90.0439 33.0272C90.3455 33.4795 90.3649 33.7009 90.366 36.699L90.3669 39.2499H92.4377H94.5086L94.4894 36.0307C94.4691 32.6008 94.4648 32.5255 94.2346 31.653C93.784 29.9447 92.6535 28.9324 90.7963 28.5743C90.364 28.4909 87.9491 28.4483 87.4588 28.5154ZM112.996 28.5351C112.414 28.6147 111.949 28.7496 111.453 28.9829C109.863 29.7313 109.021 31.1271 108.725 33.5021C108.64 34.191 108.64 51.1322 108.726 51.8148C108.992 53.931 109.653 55.2629 110.848 56.0908C111.707 56.6856 112.586 56.9236 114.093 56.9699C116.309 57.0378 117.691 56.6282 118.683 55.6091C119.503 54.7678 119.965 53.5962 120.172 51.8371C120.256 51.1243 120.256 34.1429 120.172 33.4575C119.956 31.6847 119.509 30.5983 118.651 29.7593C117.93 29.0537 117.008 28.6596 115.736 28.5137C115.188 28.4507 113.518 28.4638 112.996 28.5351ZM126.026 28.518C125.205 28.6123 124.386 28.9027 123.763 29.3201C122.613 30.0907 121.949 31.3518 121.667 33.3016C121.582 33.8854 121.581 51.4788 121.666 52.0376C122.01 54.3143 122.786 55.6223 124.235 56.3687C125.141 56.8349 125.803 56.9576 127.412 56.9573C128.718 56.957 129.154 56.9058 129.868 56.6688C131.507 56.1252 132.53 54.8561 132.921 52.8819C133.133 51.8087 133.127 52.1317 133.127 42.6584C133.127 33.2141 133.131 33.4306 132.926 32.4435C132.444 30.122 131.086 28.8335 128.805 28.534C128.245 28.4604 126.61 28.4509 126.026 28.518ZM0 42.6786V56.6269L3.54663 56.6266C6.45896 56.6264 7.17176 56.6145 7.53225 56.5601C8.99302 56.3395 9.9774 55.6709 10.5805 54.4896C10.8497 53.9624 10.9905 53.5182 11.1248 52.7728L11.2292 52.1935V42.6139C11.2292 33.6325 11.2242 33.0029 11.1497 32.5323C10.8093 30.3824 9.85653 29.2947 7.916 28.8406C7.61515 28.7702 7.21076 28.761 3.79123 28.7465L0 28.7304V42.6786ZM12.7634 42.6807V56.6269H17.6776H22.5917V54.5105V52.394H19.79H16.9883V48.3617V44.3293H19.1007H21.2131V42.2129V40.0964H19.1007H16.9883V36.4428V32.7892H19.6788H22.3694V30.7619V28.7345H17.5664H12.7634V42.6807ZM35.9778 42.6807V56.6269H38.0902H40.2026V42.6807V28.7345H38.0902H35.9778V42.6807ZM54.4336 42.6807V56.6269H56.3237H58.2137L58.215 48.6624C58.2159 44.1716 58.2331 40.7271 58.2548 40.7648C58.2759 40.8016 59.057 43.8693 59.9905 47.5819C60.9241 51.2946 61.8198 54.8486 61.981 55.4796L62.2741 56.6269H64.0018H65.7295V42.6807V28.7345H63.7951H61.8607L61.8494 36.1494L61.8382 43.5643L60.0395 36.1494L58.2408 28.7345H56.3372H54.4336V42.6807ZM95.8369 42.6807V56.6269H97.9716H100.106V50.5004V44.3739H101.529H102.952V50.5004V56.6269H105.087H107.222V42.6807V28.7345H105.087H102.952V34.3264V39.9182H101.529H100.106V34.3264V28.7345H97.9716H95.8369V42.6807ZM134.616 42.6807V56.6269H139.308H144V54.4659V52.3049H141.421H138.841V40.5197V28.7345H136.729H134.616V42.6807ZM4.22483 42.5429V52.5723H4.93171C5.51558 52.5723 5.68924 52.5566 5.92984 52.4821C6.44607 52.3224 6.73322 51.9292 6.84712 51.2261C6.87678 51.0428 6.89261 48.0332 6.89279 42.5176C6.8931 35.3367 6.88358 34.0392 6.82862 33.7513C6.71339 33.148 6.51842 32.8324 6.14851 32.6508C5.9539 32.5553 5.86856 32.5457 5.08091 32.5303L4.22483 32.5136V42.5429ZM113.92 32.5923C113.771 32.6399 113.63 32.7349 113.471 32.8939C113.206 33.1591 113.077 33.4751 113.005 34.0368C112.947 34.4852 112.946 50.8267 113.004 51.2801C113.129 52.2568 113.576 52.7679 114.359 52.8271C115.138 52.8862 115.606 52.5206 115.837 51.6708C115.907 51.4129 115.914 50.7472 115.928 42.9926C115.937 37.4905 115.927 34.4477 115.897 34.1704C115.812 33.3734 115.58 32.9203 115.136 32.68C114.931 32.5688 114.835 32.5465 114.515 32.5357C114.263 32.5272 114.064 32.5461 113.92 32.5923ZM126.843 32.6062C126.37 32.7699 126.097 33.1254 125.967 33.7471C125.871 34.2061 125.868 51.101 125.964 51.5547C126.092 52.1596 126.345 52.5186 126.787 52.7235C126.948 52.798 127.076 52.8173 127.412 52.8173C127.801 52.8173 127.854 52.8066 128.079 52.6799C128.378 52.5117 128.575 52.2384 128.713 51.798L128.813 51.4806V42.7253C128.813 35.4389 128.803 33.9288 128.752 33.7249C128.548 32.9092 128.092 32.5193 127.348 32.5233C127.2 32.5241 126.972 32.5614 126.843 32.6062Z" fill="white"/>
</svg>
