<svg width="49" height="25" viewBox="0 0 49 25" fill="none" xmlns="http://www.w3.org/2000/svg">
<path d="M2.57431 22.551C0.380854 16.7447 4.65136 7.8061 12.2995 7.8061C22.0248 7.8061 24.6861 17.8702 22.7025 22.551M7.65454 3.54821C8.81578 5.8707 11.1383 10.9028 9.20286 14.3865M14.2349 3.16113C15.2671 5.35459 17.409 10.0512 16.1703 14.3865" stroke="white" stroke-width="3" stroke-linecap="round"/>
<path d="M31.2726 3.9354C29.3372 5.22567 26.3109 10.1287 27.7888 15.5478C29.2668 20.967 33.208 22.5153 37.0788 22.5153C44.8204 23.2895 48.873 15.3027 45.9817 10.9029C37.0788 -2.64497 28.9501 15.5478 37.0788 16.322C37.4651 16.3588 39.0142 11.2899 42.885 2" stroke="white" stroke-width="3" stroke-linecap="round"/>
</svg>
